<svg width="14" height="11" viewBox="0 0 14 11" xmlns="http://www.w3.org/2000/svg">
<path d="M7 2.62517C7.12305 2.62517 7.23698 2.64795 7.3418 2.69353C7.44661 2.7391 7.53776 2.80062 7.61523 2.8781C7.69271 2.95557 7.75651 3.04899 7.80664 3.15837C7.85677 3.26774 7.87956 3.38168 7.875 3.50017C7.875 3.62321 7.85221 3.73715 7.80664 3.84196C7.76107 3.94678 7.69954 4.03793 7.62207 4.1154C7.5446 4.19288 7.45117 4.25668 7.3418 4.30681C7.23242 4.35694 7.11849 4.37972 7 4.37517C6.87695 4.37517 6.76302 4.35238 6.6582 4.30681C6.55339 4.26123 6.46224 4.19971 6.38477 4.12224C6.30729 4.04476 6.24349 3.95134 6.19336 3.84196C6.14323 3.73259 6.12044 3.61866 6.125 3.50017C6.125 3.37712 6.14779 3.26319 6.19336 3.15837C6.23893 3.05355 6.30046 2.96241 6.37793 2.88493C6.4554 2.80746 6.54883 2.74366 6.6582 2.69353C6.76758 2.6434 6.88151 2.62061 7 2.62517ZM10.9375 4.37517C11.3613 4.37517 11.7578 4.45492 12.127 4.61442C12.4961 4.77393 12.8219 4.99268 13.1045 5.27067C13.387 5.54867 13.6058 5.87224 13.7607 6.24138C13.9157 6.61052 13.9954 7.00928 14 7.43767C14 7.8615 13.9202 8.25798 13.7607 8.62712C13.6012 8.99626 13.3825 9.32211 13.1045 9.60466C12.8265 9.88721 12.5029 10.106 12.1338 10.2609C11.7646 10.4159 11.3659 10.4956 10.9375 10.5002C10.5137 10.5002 10.1172 10.4204 9.74805 10.2609C9.37891 10.1014 9.05306 9.88265 8.77051 9.60466C8.48796 9.32666 8.26921 9.0031 8.11426 8.63396C7.95931 8.26482 7.87956 7.86605 7.875 7.43767C7.875 7.01384 7.95475 6.61735 8.11426 6.24821C8.27376 5.87907 8.49251 5.55323 8.77051 5.27067C9.0485 4.98812 9.37207 4.76937 9.74121 4.61442C10.1104 4.45948 10.5091 4.37972 10.9375 4.37517ZM8.75 7.43767C8.75 7.73845 8.80697 8.021 8.9209 8.28532C9.03483 8.54965 9.18978 8.78207 9.38574 8.98259C9.58171 9.18311 9.81413 9.34034 10.083 9.45427C10.3519 9.5682 10.6367 9.62517 10.9375 9.62517C11.1517 9.62517 11.3613 9.59554 11.5664 9.5363C11.7715 9.47705 11.9629 9.38591 12.1406 9.26286L9.1123 6.23454C8.99382 6.41228 8.90495 6.60368 8.8457 6.80876C8.78646 7.01384 8.75456 7.22347 8.75 7.43767ZM12.7627 8.64079C12.8812 8.46306 12.9701 8.27165 13.0293 8.06657C13.0885 7.8615 13.1204 7.65186 13.125 7.43767C13.125 7.13689 13.068 6.85433 12.9541 6.59001C12.8402 6.32569 12.6829 6.09554 12.4824 5.89958C12.2819 5.70362 12.0495 5.54639 11.7852 5.4279C11.5208 5.30941 11.2383 5.25017 10.9375 5.25017C10.7233 5.25017 10.5137 5.27979 10.3086 5.33903C10.1035 5.39828 9.91211 5.48942 9.73438 5.61247L12.7627 8.64079ZM4.375 3.50017C4.375 3.83741 4.43424 4.15414 4.55273 4.45036C4.67122 4.74659 4.83529 5.01319 5.04492 5.25017C5.25456 5.48715 5.50065 5.67855 5.7832 5.82439C6.06576 5.97022 6.37565 6.06592 6.71289 6.1115C6.79948 6.12061 6.88607 6.12517 6.97266 6.12517C7.05924 6.12517 7.14811 6.12517 7.23926 6.12517C7.139 6.41228 7.07292 6.70394 7.04102 7.00017C6.34831 7.00017 5.67839 6.91358 5.03125 6.7404C4.38411 6.56722 3.76204 6.32341 3.16504 6.00896C2.56803 5.6945 2.00521 5.32536 1.47656 4.90153C0.947917 4.47771 0.455729 4.01058 0 3.50017C0.442057 3.00342 0.927409 2.54086 1.45605 2.11247C1.9847 1.68409 2.54525 1.31495 3.1377 1.00505C3.73014 0.695154 4.35221 0.44906 5.00391 0.266768C5.6556 0.0844766 6.32096 -0.00439056 7 0.00016673C7.69727 0.00016673 8.37175 0.082198 9.02344 0.24626C9.67513 0.410323 10.2949 0.647302 10.8828 0.957198C11.4707 1.26709 12.029 1.63396 12.5576 2.05778C13.0863 2.48161 13.5671 2.96241 14 3.50017L13.3779 4.12224L13.3232 4.06071C12.8311 3.4865 12.3024 2.97608 11.7373 2.52946C11.1722 2.08285 10.5342 1.71599 9.82324 1.42888C10.042 1.72966 10.2083 2.05778 10.3223 2.41325C10.4362 2.76872 10.4954 3.13103 10.5 3.50017V3.54118C10.2038 3.57308 9.91211 3.63916 9.625 3.73942V3.50017C9.625 3.14014 9.55664 2.80062 9.41992 2.48161C9.2832 2.1626 9.09408 1.88461 8.85254 1.64763C8.611 1.41065 8.33301 1.2238 8.01855 1.08708C7.7041 0.950362 7.36458 0.879724 7 0.875167C6.63997 0.875167 6.30046 0.943526 5.98145 1.08024C5.66244 1.21696 5.38444 1.40609 5.14746 1.64763C4.91048 1.88916 4.72363 2.16716 4.58691 2.48161C4.4502 2.79607 4.37956 3.13558 4.375 3.50017ZM4.12207 5.48942C3.91699 5.19776 3.76204 4.88331 3.65723 4.54607C3.55241 4.20883 3.5 3.86019 3.5 3.50017C3.5 3.1447 3.55241 2.79834 3.65723 2.4611C3.76204 2.12386 3.91699 1.80713 4.12207 1.51091C3.5752 1.74789 3.06022 2.035 2.57715 2.37224C2.09408 2.70948 1.63835 3.08545 1.20996 3.50017C1.63835 3.91488 2.09408 4.29086 2.57715 4.6281C3.06022 4.96534 3.5752 5.25245 4.12207 5.48942Z" fill="black"/>
</svg>
